<?xml version="1.0" encoding="utf-8"?>
<!-- Generator: Adobe Illustrator 25.0.0, SVG Export Plug-In . SVG Version: 6.00 Build 0)  -->
<svg version="1.1" id="圖層_1" xmlns="http://www.w3.org/2000/svg" xmlns:xlink="http://www.w3.org/1999/xlink" x="0px" y="0px"
	 viewBox="0 0 24 24" style="enable-background:new 0 0 24 24;" xml:space="preserve">
<style type="text/css">
	.st0{fill:#FFFFFF;}
</style>
<path class="st0" d="M21,18.5c0,1.9-1.6,3.5-3.5,3.5S14,20.4,14,18.5c0-0.3,0-0.6,0.1-0.8l-5.2-2.6C8.2,15.7,7.4,16,6.5,16
	C4.6,16,3,14.4,3,12.5S4.6,9,6.5,9c0.9,0,1.7,0.3,2.4,0.9l5.2-2.6C14,7.1,14,6.8,14,6.5C14,4.6,15.6,3,17.5,3S21,4.6,21,6.5
	S19.4,10,17.5,10c-0.9,0-1.7-0.3-2.4-0.9l-5.2,2.6c0.1,0.5,0.1,1.1,0,1.7l5.2,2.6c0.6-0.6,1.5-0.9,2.4-0.9C19.4,15,21,16.6,21,18.5z
	"/>
</svg>
